<svg width="13" height="10" viewBox="0 0 13 10" fill="none" xmlns="http://www.w3.org/2000/svg">
<mask id="path-1-inside-1_3091_26289" fill="white">
<path d="M10.0488 0.551025L8.9671 1.55994L4.60896 5.45548L3.33915 4.36249L2.21042 3.35357L0 5.32937L1.12873 6.33829L3.48024 8.4402L4.56193 9.44911L5.69066 8.4402L11.1775 3.53574L12.3062 2.52682L10.0488 0.551025Z"/>
</mask>
<path d="M10.0488 0.551025L8.9671 1.55994L4.60896 5.45548L3.33915 4.36249L2.21042 3.35357L0 5.32937L1.12873 6.33829L3.48024 8.4402L4.56193 9.44911L5.69066 8.4402L11.1775 3.53574L12.3062 2.52682L10.0488 0.551025Z" fill="#EDEDED"/>
<path d="M10.0488 0.551025L16.7529 -7.10873L9.83178 -13.1663L3.10578 -6.89283L10.0488 0.551025ZM8.9671 1.55994L15.7508 9.14924L15.8312 9.07736L15.9101 9.00379L8.9671 1.55994ZM4.60896 5.45548L-2.0316 13.1704L4.73562 18.9952L11.3927 13.0448L4.60896 5.45548ZM3.33915 4.36249L-3.44458 11.9518L-3.37359 12.0152L-3.30142 12.0774L3.33915 4.36249ZM2.21042 3.35357L8.99415 -4.23572L2.21042 -10.2994L-4.57331 -4.23572L2.21042 3.35357ZM0 5.32937L-6.78373 -2.25993L-15.2743 5.32937L-6.78373 12.9187L0 5.32937ZM1.12873 6.33829L-5.655 13.9276L1.12873 6.33829ZM3.48024 8.4402L10.4233 0.996345L10.3444 0.92278L10.264 0.850902L3.48024 8.4402ZM4.56193 9.44911L-2.38108 16.893L4.41589 23.2326L11.3457 17.0384L4.56193 9.44911ZM5.69066 8.4402L12.4744 16.0295L12.4744 16.0295L5.69066 8.4402ZM11.1775 3.53574L17.9613 11.125L17.9613 11.125L11.1775 3.53574ZM12.3062 2.52682L19.09 10.1161L27.6703 2.44656L19.0103 -5.13293L12.3062 2.52682ZM3.10578 -6.89283L2.02409 -5.88391L15.9101 9.00379L16.9918 7.99488L3.10578 -6.89283ZM2.18337 -6.02935L-2.17476 -2.13381L11.3927 13.0448L15.7508 9.14924L2.18337 -6.02935ZM11.2495 -2.25939L9.97972 -3.35238L-3.30142 12.0774L-2.0316 13.1704L11.2495 -2.25939ZM10.1229 -3.22681L8.99415 -4.23572L-4.57331 10.9429L-3.44458 11.9518L10.1229 -3.22681ZM-4.57331 -4.23572L-6.78373 -2.25993L6.78373 12.9187L8.99415 10.9429L-4.57331 -4.23572ZM-6.78373 12.9187L-5.655 13.9276L7.91246 -1.25101L6.78373 -2.25993L-6.78373 12.9187ZM-5.655 13.9276L-3.30349 16.0295L10.264 0.850902L7.91246 -1.25101L-5.655 13.9276ZM-3.46277 15.8841L-2.38108 16.893L11.5049 2.00526L10.4233 0.996345L-3.46277 15.8841ZM11.3457 17.0384L12.4744 16.0295L-1.09307 0.850901L-2.22179 1.85982L11.3457 17.0384ZM12.4744 16.0295L17.9613 11.125L4.3938 -4.05356L-1.09307 0.850902L12.4744 16.0295ZM17.9613 11.125L19.09 10.1161L5.52252 -5.06247L4.39379 -4.05356L17.9613 11.125ZM19.0103 -5.13293L16.7529 -7.10873L3.34473 8.21078L5.60218 10.1866L19.0103 -5.13293Z" fill="#EDEDED" mask="url(#path-1-inside-1_3091_26289)"/>
</svg>
