<svg fill="none" height="1024" viewBox="0 0 1024 1024" width="1024"
    xmlns="http://www.w3.org/2000/svg">
    <rect fill="black" height="1024" rx="200" width="1024" />
    <path
        d="M662.394 477C726.124 477 777.788 425.513 777.788 362C777.788 298.487 726.124 247 662.394 247C598.664 247 547 298.487 547 362C547 425.513 598.664 477 662.394 477Z"
        fill="white" />
    <path
        d="M477 352.676C472.22 293.549 422.759 247 362.217 247C298.634 247 247 298.537 247 362C247 425.463 298.634 477 362.217 477C425.8 477 472.22 430.451 477 371.324H366.2V352.603H477V352.676Z"
        fill="white" />
    <path
        d="M662 777C725.513 777 777 725.513 777 662C777 598.487 725.513 547 662 547C598.487 547 547 598.487 547 662C547 725.513 598.487 777 662 777Z"
        fill="white" />
    <path
        d="M461.387 604.319C441.437 570.058 404.429 547 362 547C298.465 547 247 598.537 247 662C247 725.463 298.537 777 362 777C425.463 777 477 725.463 477 662H362.072L461.387 604.247V604.319Z"
        fill="white" />
</svg>
