<svg width="24" height="25" viewBox="0 0 24 25" fill="none" xmlns="http://www.w3.org/2000/svg">
<path d="M15.8411 12.8283C17.3179 13.5263 18.5771 14.6128 19.4839 15.9714C20.3907 17.3301 20.911 18.9097 20.9891 20.5413C20.9994 20.6908 20.9797 20.8408 20.9313 20.9826C20.8828 21.1243 20.8065 21.255 20.7068 21.3669C20.6072 21.4788 20.4862 21.5696 20.3509 21.6341C20.2157 21.6986 20.0689 21.7354 19.9193 21.7424C19.7696 21.7494 19.6201 21.7264 19.4794 21.6748C19.3387 21.6232 19.2098 21.5441 19.1001 21.442C18.9905 21.3399 18.9023 21.2169 18.8408 21.0803C18.7794 20.9436 18.7458 20.7961 18.7421 20.6463C18.6603 18.9131 17.9143 17.2779 16.6588 16.0803C15.4032 14.8826 13.7347 14.2144 11.9996 14.2144C10.2645 14.2144 8.59597 14.8826 7.34046 16.0803C6.08496 17.2779 5.33888 18.9131 5.25711 20.6463C5.2369 20.9397 5.10263 21.2135 4.88304 21.4091C4.66345 21.6047 4.376 21.7065 4.08225 21.6928C3.78851 21.6791 3.51181 21.5509 3.31142 21.3356C3.11102 21.1204 3.00287 20.8353 3.01011 20.5413C3.0879 18.9098 3.6079 17.3302 4.51446 15.9716C5.42102 14.6129 6.67999 13.5264 8.15661 12.8283C7.21013 12.0388 6.5298 10.977 6.20819 9.78717C5.88657 8.59736 5.93926 7.33736 6.3591 6.17856C6.77895 5.01976 7.54556 4.01841 8.55465 3.31073C9.56375 2.60305 10.7663 2.22339 11.9989 2.22339C13.2314 2.22339 14.434 2.60305 15.4431 3.31073C16.4522 4.01841 17.2188 5.01976 17.6386 6.17856C18.0585 7.33736 18.1111 8.59736 17.7895 9.78717C17.4679 10.977 16.7876 12.0388 15.8411 12.8283ZM15.7496 8.21881C15.7496 7.22425 15.3545 6.27042 14.6513 5.56716C13.948 4.8639 12.9942 4.46881 11.9996 4.46881C11.005 4.46881 10.0512 4.8639 9.34796 5.56716C8.64469 6.27042 8.24961 7.22425 8.24961 8.21881C8.24961 9.21337 8.64469 10.1672 9.34796 10.8705C10.0512 11.5737 11.005 11.9688 11.9996 11.9688C12.9942 11.9688 13.948 11.5737 14.6513 10.8705C15.3545 10.1672 15.7496 9.21337 15.7496 8.21881Z" fill="#626262"/>
</svg>
