<svg width="89" height="18" viewBox="0 0 89 18" fill="none" xmlns="http://www.w3.org/2000/svg">
<path d="M32.5901 18C37.6031 18 41.667 13.9751 41.667 9.01009C41.667 4.04509 37.6031 0.0201721 32.5901 0.0201721C27.5771 0.0201721 23.5132 4.04509 23.5132 9.01009C23.5132 13.9751 27.5771 18 32.5901 18Z" fill="black"/>
<path d="M18.0919 8.28118C17.7159 3.65908 13.8253 0.0201721 9.06303 0.0201721C4.06156 0.0201721 0 4.04896 0 9.01009C0 13.9712 4.06156 18 9.06303 18C14.0645 18 17.7159 14.3611 18.0919 9.739H9.37634V8.27553H18.0919V8.28118Z" fill="black"/>
<path d="M79.6304 17.9798C84.6264 17.9798 88.6764 13.9549 88.6764 8.98991C88.6764 4.02492 84.6264 0 79.6304 0C74.6345 0 70.5845 4.02492 70.5845 8.98991C70.5845 13.9549 74.6345 17.9798 79.6304 17.9798Z" fill="black"/>
<path d="M63.9351 4.48083C62.3658 1.8025 59.4547 0 56.1172 0C51.1195 0 47.0713 4.02879 47.0713 8.98991C47.0713 13.951 51.1252 17.9798 56.1172 17.9798C61.1093 17.9798 65.1632 13.951 65.1632 8.98991H56.1229L63.9351 4.47518V4.48083Z" fill="black"/>
</svg>
